<svg version="1.2" xmlns="http://www.w3.org/2000/svg" viewBox="0 0 32 32" width="48" height="48">
	<title>expertise-react-svg</title>
	<style>
		.s0 { fill: #f5f2e7; stroke: #f5f2e7; stroke-width: 0.1; } 
	</style>
	<g id="Layer">
		<path id="Layer" fill-rule="evenodd" class="s0" d="m24.2 20.5c0.8 3.5 0.5 6.3-1.1 7.2-0.4 0.2-0.8 0.3-1.3 0.3-1.6 0-3.5-1.1-5.5-3-2 1.9-4 3-5.5 3-0.5 0-0.9-0.1-1.3-0.3-1.6-0.9-1.9-3.7-1.1-7.2-3.5-1-5.7-2.6-5.7-4.5 0-1.8 2.3-3.5 5.7-4.5-0.8-3.5-0.5-6.2 1-7.2 0.4-0.2 0.8-0.3 1.3-0.3 1.6 0 3.5 1.1 5.5 3 2-1.9 4-3 5.5-3 0.5 0 0.9 0.1 1.3 0.3 1.6 1 1.9 3.7 1 7.2 3.5 1 5.7 2.6 5.7 4.5 0 1.8-2.2 3.5-5.5 4.5zm-7.1-12.6c0.8 0.8 1.5 1.7 2.2 2.7 1.3 0.2 2.4 0.3 3.5 0.6 0.1-0.5 0.2-1.1 0.3-1.6 0.3-2.1 0-3.7-0.8-4.1-0.1-0.2-0.3-0.2-0.6-0.2-1.1 0-2.8 0.9-4.6 2.6zm3.9 8.1c-0.3-0.7-0.7-1.4-1.1-2.1-0.4-0.8-0.9-1.5-1.3-2.1-0.8-0.1-1.6-0.1-2.4-0.1-0.8 0-1.6 0-2.4 0.1-0.4 0.7-0.9 1.4-1.3 2.1-0.4 0.7-0.8 1.4-1.1 2.1 0.3 0.7 0.7 1.4 1.1 2.1 0.5 0.7 0.9 1.4 1.3 2 0.8 0.1 1.6 0.1 2.4 0.1 0.8 0 1.6 0 2.4-0.1 0.5-0.6 0.9-1.3 1.3-2 0.4-0.7 0.8-1.4 1.1-2.1zm0 2.7c-0.2 0.4-0.5 0.8-0.7 1.2 0.7-0.1 1.4-0.2 2.1-0.4-0.2-0.6-0.4-1.3-0.7-2-0.2 0.4-0.4 0.9-0.7 1.2zm-3.4 2.8c-0.4 0-0.9 0-1.4 0-0.4 0-0.9 0-1.4 0 0.4 0.6 0.9 1.2 1.4 1.7 0.5-0.5 1-1.1 1.4-1.7zm-6.2-2.7c-0.3-0.4-0.5-0.8-0.7-1.2-0.2 0.6-0.5 1.3-0.7 2 0.7 0.2 1.4 0.3 2.1 0.4-0.2-0.4-0.4-0.8-0.7-1.2zm-0.1-5.6c0.3-0.4 0.5-0.8 0.8-1.2-0.8 0.1-1.5 0.2-2.2 0.4 0.3 0.7 0.5 1.4 0.8 2.1 0.3-0.4 0.5-0.8 0.6-1.3zm3.5-2.8c0.5 0 0.9 0 1.4 0 0.5 0 0.9 0 1.4 0-0.5-0.5-0.9-1.1-1.4-1.6-0.4 0.5-0.9 1.1-1.4 1.6zm6.8 4.1c0.3-0.7 0.6-1.4 0.8-2.1-0.7-0.2-1.4-0.3-2.2-0.4 0.3 0.4 0.5 0.8 0.8 1.2 0.3 0.5 0.5 0.9 0.6 1.3zm-12-3.4c1.1-0.3 2.3-0.5 3.5-0.6 0.7-1 1.5-1.9 2.2-2.7-1.8-1.7-3.4-2.6-4.5-2.6-0.2 0-0.4 0.1-0.6 0.2-0.8 0.5-1.1 2-0.8 4.1 0 0.5 0.1 1.1 0.2 1.6zm-0.8 8.2c0.3-1 0.7-2.1 1.2-3.2-0.6-1.1-1-2.2-1.3-3.3-0.6 0.1-1.1 0.3-1.6 0.5-1.9 0.8-3.1 1.8-3.1 2.7 0 0.8 1.3 1.9 3.2 2.7 0.5 0.2 1 0.4 1.6 0.6zm1.9 7.3c1.1 0 2.7-0.9 4.5-2.6-0.7-0.8-1.5-1.7-2.2-2.7-1.2-0.1-2.3-0.3-3.4-0.5-0.1 0.6-0.2 1.2-0.3 1.7-0.3 2.1 0 3.7 0.8 4.1 0.2 0 0.4 0.1 0.6 0zm12.1-5.6c-1 0.2-2.2 0.4-3.4 0.5-0.7 1-1.4 1.9-2.2 2.7 1.8 1.7 3.4 2.6 4.5 2.6 0.2 0 0.4-0.1 0.6-0.2 0.8-0.5 1.1-2 0.8-4.1q-0.2-0.9-0.3-1.5zm5.7-5.1c0-0.9-1.2-1.9-3.1-2.7-0.5-0.2-1.1-0.3-1.6-0.5-0.4 1.1-0.8 2.2-1.3 3.3 0.5 1.1 0.9 2.2 1.2 3.2 0.6-0.1 1.1-0.3 1.6-0.5 1.9-0.8 3.1-1.9 3.2-2.8z"/>
		<path id="Layer" class="s0" d="m16.3 18.5c1.4 0 2.5-1.1 2.5-2.5 0-1.4-1.1-2.5-2.5-2.5-1.4 0-2.5 1.1-2.5 2.5 0 1.4 1.1 2.5 2.5 2.5z"/>
	</g>
</svg>
