<svg version="1.2" xmlns="http://www.w3.org/2000/svg" viewBox="0 -100 1024 1024" width="1024" height="1024">
	<title>expertise-backend-svg</title>
	<style>
		.s0 { fill: #f5f2e7} 
	</style>
	<path id="Layer" fill-rule="evenodd" class="s0" d="m823.9 296.1h-623.8q-1.5 0-3-0.6-1.5-0.6-2.6-1.7-1.1-1.2-1.7-2.6-0.7-1.5-0.7-3.1v-159.9q0-1.6 0.7-3.1 0.6-1.5 1.7-2.6 1.1-1.1 2.6-1.7 1.5-0.6 3-0.6h623.8q1.5 0 3 0.6 1.5 0.6 2.6 1.7 1.1 1.1 1.7 2.6 0.7 1.5 0.7 3.1v159.9q0 1.6-0.7 3.1-0.6 1.4-1.7 2.6-1.1 1.1-2.6 1.7-1.5 0.6-3 0.6zm-615.8-16h607.8v-143.9h-607.8z"/>
	<path id="Layer" fill-rule="evenodd" class="s0" d="m296.1 264.1h-48q-1.1 0-2.1-0.3-1.1-0.3-2-0.8-0.9-0.6-1.7-1.4-0.7-0.8-1.2-1.7-0.5-1-0.8-2-0.2-1.1-0.2-2.2 0.1-1.1 0.4-2.1 0.4-1 1-1.9l63.9-96q0.6-0.8 1.3-1.5 0.7-0.6 1.6-1.1 0.9-0.5 1.8-0.7 1-0.2 2-0.2h48c2.9 0 5.6 1.6 7 4.2q0.5 0.9 0.8 2 0.2 1.1 0.2 2.1-0.1 1.1-0.4 2.2-0.4 1-1 1.9l-63.9 95.9q-0.6 0.9-1.3 1.5-0.8 0.7-1.6 1.2-0.9 0.4-1.9 0.7-0.9 0.2-1.9 0.2zm-33-16h28.7l53.3-79.9h-28.7zm129 15.9h-48q-1.1 0-2.1-0.2-1.1-0.3-2-0.9-1-0.5-1.7-1.3-0.8-0.8-1.3-1.8-0.5-0.9-0.7-2-0.3-1-0.2-2.1 0-1.1 0.4-2.1 0.3-1.1 0.9-2l64-95.9q0.5-0.9 1.3-1.5 0.7-0.7 1.6-1.2 0.8-0.4 1.8-0.7 1-0.2 1.9-0.2h48c3 0 5.7 1.6 7.1 4.2q0.5 1 0.7 2 0.3 1.1 0.2 2.2 0 1.1-0.4 2.1-0.3 1-0.9 1.9l-64 96q-0.5 0.8-1.3 1.5-0.7 0.6-1.6 1.1-0.8 0.5-1.8 0.7-1 0.2-1.9 0.2zm-33.1-15.9h28.8l53.3-80h-28.8zm129 16h-48q-1 0-2.1-0.3-1-0.3-2-0.9-0.9-0.5-1.6-1.3-0.8-0.8-1.3-1.7-0.5-1-0.8-2-0.2-1.1-0.1-2.2 0-1.1 0.3-2.1 0.4-1 1-1.9l64-96q0.5-0.8 1.2-1.5 0.8-0.7 1.6-1.1 0.9-0.5 1.9-0.7 0.9-0.3 1.9-0.3h48c2.9 0 5.6 1.7 7 4.3q0.5 0.9 0.8 2 0.2 1 0.2 2.1-0.1 1.1-0.4 2.1-0.4 1.1-1 2l-63.9 95.9q-0.6 0.8-1.3 1.5-0.7 0.7-1.6 1.1-0.9 0.5-1.8 0.7-1 0.3-2 0.3zm-33-16h28.7l53.3-80h-28.7zm256.9 0c-22 0-40-17.9-40-40 0-22 18-39.9 40-39.9 22.1 0 40 17.9 40 39.9 0 22.1-17.9 40-40 40zm0-63.9c-13.2 0-24 10.7-24 23.9 0 13.3 10.8 24 24 24 13.2 0 24-10.7 24-24 0-13.2-10.8-23.9-24-23.9zm112 271.8h-623.7q-1.6 0-3.1-0.6-1.5-0.6-2.6-1.7-1.1-1.1-1.7-2.6-0.6-1.5-0.6-3.1v-127.9c0-4.4 3.5-8 8-8 4.4 0 7.9 3.6 7.9 8v119.9h607.8v-119.9c0-4.4 3.5-8 8-8 4.4 0 8 3.6 8 8v127.9q0 1.6-0.6 3.1-0.7 1.5-1.8 2.6-1.1 1.1-2.6 1.7-1.4 0.6-3 0.6z"/>
	<path id="Layer" fill-rule="evenodd" class="s0" d="m296.1 424h-48q-1.1 0-2.1-0.3-1.1-0.2-2-0.8-0.9-0.6-1.7-1.3-0.7-0.8-1.2-1.8-0.5-0.9-0.8-2-0.2-1.1-0.2-2.1 0.1-1.1 0.4-2.2 0.4-1 1-1.9l63.9-96q0.6-0.8 1.3-1.4 0.7-0.7 1.6-1.2 0.9-0.4 1.8-0.7 1-0.2 2-0.2h48c2.9 0 5.6 1.6 7 4.2q0.5 1 0.8 2 0.2 1.1 0.2 2.2-0.1 1.1-0.4 2.1-0.4 1-1 1.9l-63.9 96q-0.6 0.8-1.3 1.5-0.8 0.6-1.6 1.1-0.9 0.5-1.9 0.7-0.9 0.2-1.9 0.2zm-33-16h28.7l53.3-79.9h-28.7zm129 16h-48q-1.1 0-2.1-0.3-1.1-0.3-2-0.9-1-0.5-1.7-1.3-0.8-0.8-1.3-1.7-0.5-1-0.7-2.1-0.3-1-0.2-2.1 0-1.1 0.4-2.1 0.3-1.1 0.9-2l64-95.9q0.5-0.8 1.3-1.5 0.7-0.7 1.6-1.1 0.8-0.5 1.8-0.7 1-0.3 1.9-0.3h48c3 0 5.7 1.7 7.1 4.2q0.5 1 0.7 2.1 0.3 1 0.2 2.1 0 1.1-0.4 2.1-0.3 1.1-0.9 2l-64 95.9q-0.5 0.8-1.3 1.5-0.7 0.7-1.6 1.1-0.8 0.5-1.8 0.7-1 0.3-1.9 0.3zm-33.1-16h28.8l53.3-80h-28.8zm129 16h-48q-1 0-2.1-0.3-1-0.3-2-0.8-0.9-0.6-1.6-1.4-0.8-0.8-1.3-1.7-0.5-1-0.8-2-0.2-1.1-0.1-2.2 0-1.1 0.3-2.1 0.4-1 1-1.9l64-96q0.5-0.8 1.2-1.5 0.8-0.6 1.6-1.1 0.9-0.5 1.9-0.7 0.9-0.2 1.9-0.2h48c2.9 0 5.6 1.6 7 4.2q0.5 0.9 0.8 2 0.2 1.1 0.2 2.1-0.1 1.1-0.4 2.2-0.4 1-1 1.9l-63.9 95.9q-0.6 0.9-1.3 1.5-0.7 0.7-1.6 1.2-0.9 0.4-1.8 0.7-1 0.2-2 0.2zm-33-16h28.7l53.3-79.9h-28.7zm256.9 0c-22 0-40-18-40-40 0-22.1 18-40 40-40 22.1 0 40 17.9 40 40 0 22-17.9 40-40 40zm0-64c-13.2 0-24 10.7-24 24 0 13.2 10.8 24 24 24 13.2 0 24-10.8 24-24 0-13.3-10.8-24-24-24zm-511.7 207.9q-1.6 0-3.1-0.6-1.5-0.6-2.6-1.7-1.1-1.2-1.7-2.6-0.6-1.5-0.6-3.1v-64c0-4.4 3.5-8 8-8 4.4 0 7.9 3.6 7.9 8v64q0 1.6-0.6 3.1-0.6 1.4-1.7 2.6-1.1 1.1-2.6 1.7-1.5 0.6-3 0.6zm623.7-32q-1.6 0-3.1-0.6-1.5-0.6-2.6-1.7-1.1-1.2-1.7-2.6-0.6-1.5-0.6-3.1v-32c0-4.4 3.5-8 8-8 4.4 0 8 3.6 8 8v32q0 1.6-0.6 3.1-0.7 1.4-1.8 2.6-1.1 1.1-2.6 1.7-1.4 0.6-3 0.6zm-479.8-8c-1.5 0-2.9-0.4-4.1-1.1-1.3-0.8-2.3-1.8-3-3.1-0.6-1.3-1-2.7-0.9-4.2 0.1-1.4 0.5-2.8 1.3-4l7.7-11.6h-28.7l-13.6 20.4c-1.2 1.7-3.1 2.9-5.1 3.3-2.1 0.4-4.2-0.1-5.9-1.2-1.7-1.2-2.9-3-3.4-5-0.4-2 0-4.2 1.1-5.9l15.9-24q0.6-0.8 1.3-1.5 0.8-0.7 1.6-1.1 0.9-0.5 1.9-0.7 0.9-0.3 1.9-0.3h48c2.9 0 5.6 1.6 7 4.2q0.5 1 0.8 2.1 0.2 1 0.2 2.1-0.1 1.1-0.4 2.1-0.4 1.1-1 2l-16 23.9q-0.5 0.9-1.2 1.5-0.8 0.7-1.6 1.2-0.9 0.4-1.9 0.7-0.9 0.2-1.9 0.2zm90.6 8c-1.4 0-2.8-0.4-4.1-1.1-1.2-0.8-2.2-1.8-2.9-3.1-0.7-1.3-1-2.7-1-4.2 0.1-1.4 0.6-2.8 1.4-4l13-19.6h-28.8l-13.6 20.4c-1.2 1.8-3 3-5.1 3.4-2 0.4-4.2 0-5.9-1.2-1.8-1.2-3-3-3.4-5.1-0.4-2 0-4.2 1.1-5.9l16-24q0.6-0.8 1.3-1.5 0.7-0.7 1.6-1.1 0.9-0.5 1.8-0.7 1-0.3 2-0.3h47.9c3 0 5.7 1.6 7.1 4.2q0.5 1 0.7 2.1 0.3 1 0.2 2.1 0 1.1-0.4 2.1-0.3 1.1-0.9 2l-21.3 31.9q-0.6 0.9-1.3 1.5-0.7 0.7-1.6 1.2-0.9 0.4-1.8 0.7-1 0.2-2 0.2zm64 48q-0.6 0-1.2-0.1-0.6-0.1-1.1-0.3-0.6-0.1-1.1-0.4-0.6-0.2-1-0.6c-3.7-2.4-4.7-7.4-2.3-11l45-67.6h-28.7l-29.6 44.4c-2.5 3.7-7.5 4.7-11.1 2.3-3.7-2.5-4.7-7.5-2.2-11.1l32-48q0.5-0.8 1.2-1.5 0.8-0.7 1.6-1.1 0.9-0.5 1.9-0.7 0.9-0.3 1.9-0.3h48c2.9 0 5.6 1.6 7 4.2q0.6 1 0.8 2.1 0.2 1 0.2 2.1-0.1 1.1-0.4 2.1-0.3 1-1 2l-53.3 79.9q-0.5 0.8-1.2 1.5-0.8 0.7-1.6 1.1-0.9 0.5-1.9 0.7-0.9 0.3-1.9 0.3zm181.2-32q-1.6 0-3-0.6-1.5-0.6-2.6-1.7-1.1-1.2-1.8-2.6-0.6-1.5-0.6-3.1c0-22.1 18-40 40-40 14.2 0 27.5 7.7 34.6 20q0.8 1.4 1.1 2.9 0.2 1.6-0.2 3.2-0.5 1.5-1.4 2.8-1 1.2-2.4 2-1.3 0.8-2.9 1-1.6 0.2-3.1-0.2-1.6-0.4-2.8-1.3-1.3-1-2.1-2.4c-4.3-7.4-12.3-12-20.8-12-13.2 0-24 10.8-24 24q0 1.6-0.6 3.1-0.6 1.4-1.7 2.6-1.1 1.1-2.6 1.7-1.5 0.6-3.1 0.6zm-479.7-399.8c-1.7 0-3.3-0.5-4.6-1.5-1.4-0.9-2.4-2.2-3-3.8-0.5-1.5-0.6-3.2-0.2-4.8 0.5-1.6 1.4-3 2.6-4.1l96-79.9q1.2-1 2.7-1.5 1.5-0.5 3.1-0.3 1.6 0.1 3 0.8 1.4 0.8 2.4 2 1.1 1.2 1.5 2.7 0.5 1.6 0.4 3.1-0.2 1.6-0.9 3-0.7 1.4-2 2.5l-95.9 79.9q-0.6 0.5-1.2 0.8-0.6 0.4-1.2 0.6-0.7 0.2-1.4 0.4-0.7 0.1-1.3 0.1zm623.7 0q-0.7 0-1.4-0.1-0.7-0.2-1.4-0.4-0.6-0.2-1.2-0.6-0.6-0.3-1.2-0.8l-95.9-79.9q-1.2-1.1-2-2.5-0.7-1.4-0.8-3-0.2-1.5 0.3-3.1 0.5-1.5 1.5-2.7 1-1.2 2.4-2 1.4-0.7 3-0.8 1.6-0.2 3.1 0.3 1.5 0.5 2.7 1.5l96 79.9c1.3 1.1 2.2 2.5 2.6 4.1 0.4 1.6 0.3 3.3-0.2 4.8-0.6 1.5-1.6 2.9-2.9 3.8-1.4 1-3 1.5-4.6 1.5z"/>
	<path id="Layer" class="s0" d="m727.9 56.2h-431.8c-4.4 0-8-3.6-8-8 0-4.4 3.6-8 8-8h431.8c4.4 0 8 3.6 8 8 0 4.4-3.6 8-8 8z"/>
	<path id="Layer" class="s0" d="m152.2 759.9c-83.8 0-152-68.2-152-151.9 0-68.3 46.8-128.8 112.1-146.6q0-0.7 0-1.3-0.1-0.7-0.1-1.4 0-0.7 0-1.3 0-0.7 0-1.4c0-40.6 18.6-77.9 51.2-102.3q1.2-1 2.8-1.4 1.5-0.4 3.1-0.2 1.6 0.3 2.9 1.1 1.4 0.8 2.4 2.1 0.9 1.2 1.3 2.8 0.4 1.5 0.2 3.1-0.2 1.6-1 2.9-0.9 1.4-2.1 2.4c-28.5 21.3-44.8 54-44.8 89.5 0 3.7 0.2 7.3 0.5 10.8q0.2 1.5-0.2 2.9-0.4 1.4-1.3 2.6-0.8 1.2-2.1 2-1.2 0.8-2.6 1.1c-61.6 13.7-106.3 69.4-106.3 132.6 0 74.9 61 135.9 136 135.9h599.7c141.1 0 255.9-114.8 255.9-255.9 0-24.9-3.6-49.7-10.8-73.6-7.1-23.9-17.7-46.6-31.5-67.4-13.7-20.8-30.4-39.5-49.5-55.5-19.1-15.9-40.5-29-63.4-38.8q-1.5-0.7-2.6-1.8-1.1-1.1-1.7-2.6-0.6-1.5-0.6-3.1 0.1-1.6 0.7-3 0.6-1.5 1.7-2.6 1.2-1.1 2.7-1.7 1.4-0.6 3-0.6 1.6 0 3.1 0.7c24.3 10.4 47 24.3 67.4 41.3 20.3 16.9 38 36.8 52.6 58.9 14.6 22.1 25.8 46.2 33.4 71.6 7.6 25.4 11.5 51.7 11.5 78.2 0 149.9-122 271.9-271.9 271.9z"/>
	<path id="Layer" class="s0" d="m524 632q-1-0.1-1.9-0.3-0.9-0.2-1.8-0.6-0.8-0.5-1.5-1.1-0.7-0.6-1.3-1.4c-42.1-58-109.9-92.6-181.4-92.6-71.6 0-139.4 34.6-181.4 92.6-2.6 3.6-7.7 4.4-11.2 1.8-3.6-2.6-4.4-7.6-1.8-11.1 45.1-62.2 117.7-99.3 194.4-99.3 76.6 0 149.3 37.1 194.3 99.2q1 1.3 1.4 2.9 0.3 1.5 0.1 3.1-0.3 1.6-1.1 2.9-0.8 1.4-2.1 2.3-0.5 0.4-1.1 0.7-0.5 0.3-1.1 0.5-0.6 0.2-1.3 0.3-0.6 0.1-1.2 0.1z"/>
	<path id="Layer" class="s0" d="m679.6 632q-0.8-0.1-1.7-0.2-0.8-0.2-1.6-0.6-0.8-0.4-1.5-0.9-0.7-0.5-1.3-1.2c-24.4-28.7-59.9-45.1-97.5-45.1-13 0-25.8 1.9-38.1 5.7q-1.5 0.5-3.1 0.4-1.6-0.2-3-0.9-1.4-0.8-2.4-2-1-1.2-1.5-2.8-0.5-1.5-0.3-3.1 0.1-1.5 0.9-2.9 0.7-1.5 1.9-2.5 1.3-1 2.8-1.5c13.8-4.3 28.2-6.4 42.8-6.4 42.3 0 82.3 18.5 109.7 50.8q1 1.2 1.5 2.7 0.5 1.5 0.4 3.1-0.1 1.6-0.9 3-0.7 1.4-1.9 2.4-0.5 0.5-1.1 0.9-0.6 0.3-1.3 0.6-0.7 0.2-1.4 0.3-0.7 0.1-1.4 0.2z"/>
	<path id="Layer" class="s0" d="m925.2 632q-1.2-0.1-2.4-0.4-1.1-0.4-2.1-1-1-0.7-1.8-1.7-0.7-0.9-1.2-2c-21.9-55.2-74.4-90.9-133.8-90.9-40.2 0-77.5 16.1-105 45.4-3 3.3-8.1 3.4-11.3 0.4q-1.1-1.1-1.8-2.5-0.7-1.5-0.7-3.1-0.1-1.6 0.5-3 0.6-1.5 1.7-2.7c30.1-32.1 72.6-50.5 116.6-50.5 66 0 124.4 39.6 148.7 101 1.6 4.1-0.4 8.8-4.5 10.4q-0.3 0.1-0.7 0.2-0.4 0.1-0.7 0.2-0.4 0.1-0.8 0.1-0.4 0-0.7 0.1z"/>
</svg>
